<svg xmlns="http://www.w3.org/2000/svg" viewBox="0 0 240 240">
  <defs>
    <linearGradient id="bg" x1="0" y1="0" x2="240" y2="240" gradientUnits="userSpaceOnUse">
      <stop offset="0" stop-color="#6c5ce7"/>
      <stop offset="1" stop-color="#00b8d9"/>
    </linearGradient>
  </defs>
  <rect width="240" height="240" fill="url(#bg)"/>
  <g transform="translate(40 40)" font-family="Helvetica, Arial, sans-serif" font-weight="800">
    <rect width="160" height="160" rx="10" fill="#ffffff"/>
    <g stroke="#cbd5e1" stroke-width="1">
      <line x1="0" y1="53.3" x2="160" y2="53.3"/>
      <line x1="0" y1="106.7" x2="160" y2="106.7"/>
      <line x1="53.3" y1="0" x2="53.3" y2="160"/>
      <line x1="106.7" y1="0" x2="106.7" y2="160"/>
    </g>
    <g stroke="#1a1d29" stroke-width="2.5" fill="none">
      <rect x="0" y="0" width="160" height="160" rx="10"/>
      <line x1="0" y1="53.3" x2="160" y2="53.3"/>
      <line x1="0" y1="106.7" x2="160" y2="106.7"/>
      <line x1="53.3" y1="0" x2="53.3" y2="160"/>
      <line x1="106.7" y1="0" x2="106.7" y2="160"/>
    </g>
    <g fill="#1a1d29" font-size="22" text-anchor="middle">
      <text x="26" y="34">5</text>
      <text x="80" y="34">3</text>
      <text x="133" y="88">1</text>
      <text x="80" y="142">7</text>
      <text x="26" y="142">9</text>
      <text x="133" y="34">8</text>
    </g>
    <g fill="#6c5ce7" font-size="22" text-anchor="middle">
      <text x="80" y="88">4</text>
      <text x="26" y="88">6</text>
      <text x="133" y="142">2</text>
    </g>
  </g>
</svg>
